<svg xmlns="http://www.w3.org/2000/svg" viewBox="0 0 1200 630" width="1200" height="630">
  <defs>
    <linearGradient id="ogbg" x1="0" y1="0" x2="1" y2="1">
      <stop offset="0%" stop-color="#150B33"></stop>
      <stop offset="100%" stop-color="#251457"></stop>
    </linearGradient>
    <radialGradient id="ogglow1" cx="0.2" cy="0.2" r="0.5"><stop offset="0%" stop-color="#7651F5" stop-opacity="0.5"></stop><stop offset="100%" stop-color="#7651F5" stop-opacity="0"></stop></radialGradient>
    <radialGradient id="ogglow2" cx="0.85" cy="0.8" r="0.5"><stop offset="0%" stop-color="#E03088" stop-opacity="0.45"></stop><stop offset="100%" stop-color="#E03088" stop-opacity="0"></stop></radialGradient>
    <linearGradient id="ogprism1" x1="0" y1="0" x2="1" y2="1"><stop offset="0%" stop-color="#9173FF"></stop><stop offset="100%" stop-color="#7651F5"></stop></linearGradient>
    <linearGradient id="ogprism2" x1="0" y1="1" x2="1" y2="0"><stop offset="0%" stop-color="#E03088"></stop><stop offset="100%" stop-color="#FF7DBF"></stop></linearGradient>
    <linearGradient id="ogprism3" x1="1" y1="0" x2="0" y2="1"><stop offset="0%" stop-color="#7651F5"></stop><stop offset="100%" stop-color="#9173FF"></stop></linearGradient>
  </defs>
  <rect width="1200" height="630" fill="url(#ogbg)"></rect>
  <rect width="1200" height="630" fill="url(#ogglow1)"></rect>
  <rect width="1200" height="630" fill="url(#ogglow2)"></rect>
  
  <g stroke="#FFFFFF" stroke-opacity="0.04" stroke-width="1">
    <path d="M0 105H1200 M0 210H1200 M0 315H1200 M0 420H1200 M0 525H1200"></path>
    <path d="M150 0V630 M300 0V630 M450 0V630 M600 0V630 M750 0V630 M900 0V630 M1050 0V630"></path>
  </g>
  
  <g transform="translate(280 315)">
    <path d="M0 -130 L115 65 L-115 65 Z" fill="url(#ogprism1)" opacity="0.95"></path>
    <path d="M0 -130 L115 65 L0 130 Z" fill="url(#ogprism2)" opacity="0.85"></path>
    <path d="M0 -130 L-115 65 L0 130 Z" fill="url(#ogprism3)" opacity="0.85"></path>
    <path d="M0 -130 L0 130" stroke="#FFFFFF" stroke-width="2" stroke-opacity="0.4"></path>
    <path d="M-115 65 L115 65" stroke="#FFFFFF" stroke-width="1.5" stroke-opacity="0.2"></path>
  </g>
  
  <text x="500" y="290" font-family="Instrument Sans, system-ui, sans-serif" font-size="120" font-weight="600" letter-spacing="-0.03em" fill="#FFFFFF">Prisma</text>
  <text x="500" y="350" font-family="Instrument Sans, system-ui, sans-serif" font-size="32" font-weight="400" fill="#FFFFFF" opacity="0.7">A design system for native catalogue apps.</text>
  <text x="500" y="540" font-family="JetBrains Mono, monospace" font-size="18" font-weight="500" fill="#FF7DBF" letter-spacing="0.08em">PRISMA · v0.1.0 · OPEN SOURCE</text>
</svg>